<?xml version="1.0" encoding="UTF-8"?><svg version="1.1" xmlns="http://www.w3.org/2000/svg" xmlns:xlink="http://www.w3.org/1999/xlink" x="0px" y="0px" width="3070.96px" height="3070.957px" viewBox="0 0 3070.96 3070.957" style="enable-background:new 0 0 3070.96 3070.957;" xml:space="preserve">

<g id="Слой_1">
</g>
<g id="Слой_18">
	<g>
		<path d="M785.001,1165.206c0,0,177.33-200.613,285.476-269.609c108.146-68.995,249.634-147.825,363.417-161.917
			s352.352-31.349,494.542,16.217c142.19,47.566,279.28,101.922,369.732,192.038c90.452,90.116,175.552,173.753,227.812,308.752
			s53.574,421.886,53.741,492.822c0.167,70.936,1.193,314.91-10.094,350.881s-44.201,124.508-99.26,191.771
			c-55.058,67.264-235.603,254.711-235.603,254.711l28.102-240.959c0,0-88.588-701.616-88.588-712.246
			c0-10.63-301.199-382.699-357.895-411.048c-56.696-28.348-364.982-88.588-453.57-95.675s-552.799,87.663-577.814,102.762
			C759.986,1198.805,785.001,1165.206,785.001,1165.206z" style="fill:#626262;"/>
		<g>
			<path d="M1384.322,2559.476c151.488,2.523,810.579,15.946,850.443-18.604s39.865-664.409,21.261-829.182
				c-33.618-297.762-191.35-605.941-560.761-706.931c-444.437-121.501-794.633,0-967.379,233.872s-124.352,637.954-114.271,847.786
				c8.555,178.08,33.932,408.664,50.488,438.51C688.866,2569.57,1230.102,2556.907,1384.322,2559.476z" style="fill:#B1B1B1;"/>
			<g>
				<path d="M1384.322,2566.248c67.222,1.121,134.442,2.315,201.669,3.148c96.26,1.193,192.532,1.884,288.799,1.347
					c85.516-0.477,171.226-1.249,256.597-6.689c26.583-1.694,53.436-3.532,79.671-8.351c12.795-2.35,27.412-4.794,33.75-17.5
					c9.027-18.095,10.959-40.471,13.556-60.19c4.546-34.517,7.038-69.308,9.083-104.051c5.528-93.865,7.097-187.989,7.359-282.001
					c0.257-92.064-0.812-184.205-4.87-276.189c-3.634-82.366-12.096-163.671-32.183-243.879
					c-26.607-106.246-70.833-208.885-135.279-297.773c-68.119-93.955-158.01-170.431-262.123-221.84
					c-60.33-29.789-124.099-50.246-189.417-65.878c-70.543-16.882-142.452-28.5-214.835-33.52
					c-124.51-8.635-251.534,2.625-370.486,41.632c-101.1,33.153-195.878,86.523-272.919,160.32
					c-37.726,36.138-71.669,77.035-98.185,122.123c-29.343,49.893-50.145,104.565-65.012,160.391
					c-31.225,117.252-37.843,240.204-36.372,361.038c1.284,105.487,9.284,210.84,15.179,316.139
					c3.835,68.507,9.325,136.937,16.307,205.194c5.58,54.544,11.497,109.342,21.469,163.29c3.481,18.834,4.812,46.111,24.564,55.252
					c21.936,10.153,48.223,12.283,71.899,14.986c86.728,9.902,174.697,10.776,261.885,11.944
					c94.993,1.273,189.993,0.836,284.991,0.687C1321.053,2565.83,1352.693,2565.73,1384.322,2566.248
					c8.719,0.143,8.721-13.402,0-13.545c-76.778-1.257-153.608-0.126-230.392-0.16c-96.665-0.042-193.403-0.476-289.999-4.446
					c-39.254-1.613-78.565-3.694-117.632-7.976c-13.925-1.526-27.839-3.345-41.59-6.046c-8.828-1.734-20.755-4.532-27.226-7.51
					c-1.407-0.648-2.757-1.365-4.107-2.12c-0.648-0.362-1.275-0.789-1.876-1.224c-0.567-0.41,0.814,0.737-0.488-0.454
					c-1.809-1.655-0.35-0.036-1.061-1.26c-1.367-2.353-1.136-2.145-2.085-4.974c-4.85-14.453-7.464-29.722-10.082-44.701
					c-9.527-54.514-15.436-109.717-20.9-164.761c-11.489-115.744-17.248-231.916-23.994-348.005
					c-6.646-114.375-10.278-229.356,0.055-343.633c10.527-116.425,35.369-236.156,96.616-337.26
					c52.774-87.116,132.063-158.029,219.867-208.588c99.054-57.037,211.173-89.171,324.553-100.708
					c136.549-13.895,274.887,0.903,407.695,34.093c64.232,16.052,126.712,37.35,185.555,67.957
					c52.01,27.053,100.656,60.43,144.257,99.637c81.524,73.307,143.963,165.499,186.91,266.088
					c39.375,92.221,63.513,191.967,72.542,291.783c6.803,75.21,8.208,151.036,9.428,226.501
					c1.573,97.322,1.299,194.706-1.28,292.008c-2.042,77.043-4.059,154.9-14.31,231.381c-1.564,11.672-3.388,23.354-6.043,34.833
					c-0.949,4.105-2,8.198-3.317,12.202c-1.428,4.341-1.441,4.264-3.177,7.692c-0.537,1.06-2.029,3.203-1.033,1.76
					c-0.244,0.354-0.603,0.703-0.921,0.987c-1.352,1.206,1.301-0.804-0.058,0.073c-0.856,0.553-1.742,1.01-2.645,1.48
					c-1.756,0.915,0.054,0.016-0.587,0.269c-0.694,0.273-1.393,0.542-2.102,0.772c-7.882,2.556-16.027,4.104-24.201,5.396
					c-27.005,4.269-54.93,5.95-82.393,7.504c-39.304,2.224-78.666,3.423-118.021,4.285c-95.132,2.084-190.31,2.076-285.459,1.489
					c-84.199-0.52-168.394-1.634-252.583-3.032c-25.972-0.431-51.943-0.901-77.915-1.334
					C1375.602,2552.558,1375.6,2566.103,1384.322,2566.248z"/>
			</g>
		</g>
		<g>
			<g>
				<path d="M733.733,1242.049c28.491-40.943,61.195-79.329,94.364-116.49c75.878-85.008,160.039-163.486,253.152-229.36
					c110.568-78.223,234.036-137.4,368.659-158.266c160.044-24.806,324.824-21.493,481.873,19.824
					c59.237,15.584,117.241,36.248,172.872,61.901c56.124,25.88,108.126,61.013,156.164,99.689
					c112.873,90.875,215.535,209.269,263.977,347.715c19.491,55.704,27.475,114.709,33.554,173.177
					c6.54,62.896,10.033,126.101,12.194,189.286c4.057,118.653,3.58,237.578-0.841,356.216c-1.217,32.669-2.285,65.502-5.525,98.049
					c-1.144,11.49-4.931,25.216-9.89,38.388c-11.607,30.833-27.123,60.32-43.569,88.808c-19.551,33.867-41.183,66.717-65.469,97.389
					c-20.39,25.751-43.133,49.582-65.653,73.459c-41.632,44.142-83.979,87.615-126.536,130.864
					c-7.682,7.807-15.37,15.609-23.083,23.385c-6.146,6.195,3.427,15.778,9.578,9.578c28.785-29.017,57.36-58.246,85.8-87.601
					c46.466-47.961,95.13-95.363,135.912-148.366c43.083-55.994,82.148-119.144,106.734-185.663
					c9.635-26.068,10.991-52.139,12.553-79.622c6.123-107.734,7.154-215.926,5.68-323.8
					c-1.697-124.179-5.283-250.342-26.912-372.912c-25.389-143.875-110.166-268.66-212.646-369.865
					c-49.22-48.608-103.456-92.723-161.993-129.661c-49.987-31.542-103.913-55.498-159.437-75.513
					c-141.066-50.851-291.87-70.268-441.385-62.283c-81.25,4.339-163.769,14.123-241.77,38.081
					c-64.427,19.789-126.081,48.267-184.239,82.195c-107.186,62.531-203.47,143.271-289.773,232.105
					c-50.018,51.485-97.536,105.977-139.934,163.958c-2.059,2.815-4.115,5.634-6.107,8.497
					C717.047,1242.384,728.784,1249.162,733.733,1242.049L733.733,1242.049z"/>
			</g>
		</g>
		<g>
			<path d="M1174.811,1358.224c104.206-43.876,399.319-84.147,577.38,59.366s233.199,315.361,185.361,504.053
				c-47.838,188.692-156.801,340.177-350.808,377.384c-194.007,37.207-380.038,34.549-504.949-66.441
				c-124.911-100.99-199.696-218.781-215.27-356.123C837.292,1618.673,1023.326,1422.008,1174.811,1358.224z" style="fill:#4E4E4E;"/>
			<g>
				<path d="M1176.612,1364.755c31.848-13.354,65.954-21.532,99.83-27.765c45.758-8.42,92.34-12.553,138.857-12.758
					c51.601-0.228,103.351,4.48,153.705,15.973c51.193,11.684,100.948,30.429,145.398,58.633
					c24.904,15.801,47.591,34.802,69.282,54.724c22.76,20.903,44.148,43.338,63.52,67.426c34.35,42.711,62.06,91.102,79.193,143.261
					c16.406,49.947,22.873,102.524,20.208,154.983c-2.782,54.745-15.582,108.537-33.232,160.292
					c-16.731,49.059-38.909,96.43-67.969,139.438c-27.467,40.65-61.415,77.261-101.285,105.999
					c-41.653,30.024-88.941,51.141-138.819,63.141c-31.725,7.633-64.308,12.595-96.631,16.907
					c-32.564,4.344-65.329,7.367-98.163,8.602c-60.65,2.281-122.027-1.384-180.989-16.501
					c-55.155-14.141-106.102-38.817-150.057-75.135c-47.342-39.116-90.801-83.561-125.591-134.316
					c-31.73-46.291-55.915-97.501-69.706-151.974c-14.284-56.421-17.619-115.72-10.007-173.416
					c7.235-54.844,24.688-108.245,50.199-157.272c23.877-45.889,54.566-88.073,90.405-125.346
					c32.528-33.829,69.212-63.782,109.469-87.963c17.347-10.42,35.357-19.733,53.999-27.615c3.395-1.436,4.071-6.382,2.43-9.266
					c-1.998-3.51-5.917-3.846-9.266-2.43c-41.385,17.498-79.596,41.956-114.465,70.169c-39.779,32.186-75.08,69.851-104.841,111.467
					c-31.759,44.409-56.906,93.662-73.34,145.764c-17.794,56.417-24.979,116.134-20.949,175.157
					c3.957,57.96,18.466,114.611,42.982,167.281c25.104,53.931,60.326,102.753,101.068,145.938
					c41.627,44.124,88.687,86.035,143.599,112.739c53.297,25.918,111.72,39.06,170.531,44.227
					c65.406,5.746,131.375,1.711,196.325-7.051c59.605-8.042,118.987-18.4,173.979-43.703
					c46.212-21.263,87.968-51.74,122.941-88.632c35.464-37.41,64.066-80.998,86.465-127.332
					c23.773-49.177,41.606-101.723,53.126-155.108c11.639-53.936,15.436-109.728,8.253-164.542
					c-7.076-54-24.373-106.078-50.617-153.793c-29.046-52.81-68.293-99.633-112.527-140.364
					c-22.165-20.41-45.433-39.943-70.815-56.257c-22.845-14.684-47.205-26.845-72.386-36.975
					c-49.761-20.019-102.676-31.369-155.93-36.858c-50.79-5.235-102.147-4.983-152.957-0.131
					c-42.355,4.044-84.689,11.013-125.674,22.577c-14.631,4.129-29.124,8.865-43.151,14.747c-3.398,1.425-5.749,4.468-4.73,8.331
					C1169.122,1363.216,1173.241,1366.168,1176.612,1364.755z"/>
			</g>
		</g>
	</g>
</g>
<g id="Слой_17">
	<path d="M824.248,334.431c70.554-64.732,100.133-99.411,171.084-85.592c70.951,13.819,75.612,91.267,40.848,140.422
		c-34.765,49.154-176.148,185.402-191.477,261.509c-15.329,76.107-44.195,182.154,83.076,274.868s282.163,178.156,328.001,239.063
		c45.838,60.906,79.469,130.48,84.416,150.79c4.947,20.31,47.108-36.648,228.547,9.819
		c181.439,46.468,312.516,162.43,365.685,270.994c53.169,108.564,54.298,343.393,18.622,424.195s-70.376,153.544-137.941,188.511
		c-66.114,34.216-95.375,82.852-138.258,120.095c-16.742,14.541-36.842,35.019-45.28,45.155
		c-31.403,37.726-55.366,72.983-54.878,133.362c0.229,28.408,16.066,61.192,21.442,100.815
		c16.801,123.838,71.338,195.733,40.904,209.375s-79.487-29.828-130.273-114.167c-35.144-58.361-83.26-123.207-94.227-200.029
		c-7.161-50.16,12.616-109.825,23.814-160.916c-97.428-2.156-209.263-13.936-270.555-27.286
		c-61.292-13.35-38.788-20.698-48.038-6.244c-3.295,5.148-3.949,17.572-7.788,39.358c-6.94,39.383-48.645,92.691-35.722,161.847
		c16.81,89.953,63.61,207.378,76.431,245.75c12.821,38.373,8.195,62.104-22.333,64.941c-30.528,2.837-48.118,5.323-126.075-125.787
		c-41.623-70.002-88.864-143.337-114.901-230.533c-22.729-76.117,14.497-48.775-42.018-237.324
		c-37.381-124.713-35.406-299.02-18.972-412.559c16.434-113.539,57.184-239.334,128.054-319.063
		c70.87-79.729,182.491-159.458,233.872-159.458s62.011-14.174,62.011-14.174s-28.052-58.76-79.919-95.8
		c-51.867-37.04-185.909-117.669-293.068-177.48S708.872,894.018,687.369,810.438s12.941-255.468,43.154-319.937
		C760.736,426.032,824.248,334.431,824.248,334.431z" style="fill:#FFFFFF;"/>
</g>
<g id="Слой_9">
	<path d="M1742.753,1972.85c-10.989-2.833-22.439-2.203-33.673-1.098c-25.945,2.553-45.43,3.672-67.939,18.335
		c-7.315,4.765-21.309,14.974-24.916,23.543c-3.417,8.118-7.61,17.326-7.198,26.287c0.463,10.074,5.753,20.949,11.388,28.821
		c5.327,7.442,13.878,10.958,22.194,13.033c13.619,3.398,27.824,3.83,41.588,1.266c15.369-2.863,30.463-9.435,46-8.143
		c16.115,1.341,30.7,11.021,43.647,21.843c5.87-7.542,6.174-18.498,6.175-28.5c0.001-13.257,0.003-26.515,0.004-39.772
		C1780.026,2001.781,1767.131,1979.136,1742.753,1972.85z" style="fill:#FF7900;"/>
	<path d="M1667.104,2145.927c-13.591,2.483-27.505,7.132-36.848,17.311c-7.236,7.883-11.052,18.46-12.271,29.091
		c-1.386,12.082,0.666,25.089,8.338,34.524c10.912,13.418,29.873,16.46,47.078,18.228c17.204,1.768,36.06,3.949,47.977,16.483
		c1.368,1.438,2.797,3.093,4.764,3.361c3.238,0.441,5.533-2.981,6.943-5.928c7.94-16.598,14.854-33.686,20.697-51.133
		c3.009-8.984,16.997-39.95,12.18-48.237c-5.469-9.41-38.123-13.331-47.95-14.702
		C1701.132,2142.57,1683.874,2142.864,1667.104,2145.927z" style="fill:#FF7900;"/>
	<path d="M1356.622,1317.324c144.782,28.639,273.577,128.906,336.854,262.239c6.751,14.225,12.893,28.953,22.57,41.375
		c20.156,25.873,55.612,38.805,87.693,31.985s59.21-33.057,67.099-64.891c10.218-41.236-10.519-84.159-37.665-116.837
		c-50.425-60.7-142.428-111.225-218.116-133.552c-75.688-22.327-133.427-27.671-214.341-24.681c-3.036,0.112-6.904-1.36-7.051-4.394
		s6.247-0.773,3.521,0.568" style="fill:#FF7900;"/>
	<path d="M830.125,338.265c14.774-9.966,33.45-12.686,51.221-11.359c49.911,3.728,95.843,39.962,111.089,87.633
		c1.484,4.64,2.71,9.462,2.436,14.326c-0.586,10.395-7.758,19.081-14.581,26.945c-27.652,31.87-55.305,63.741-82.957,95.611
		c-5.554,6.401-11.387,13.01-19.187,16.322c-6.56,2.786-13.889,2.965-21.014,3.095c-34.298,0.628-69.816,0.863-101.262-12.845
		c-18.683-8.144-36.928-24.528-35.704-44.872c0.591-9.827,5.675-18.742,10.63-27.249
		C756.829,441.18,785.631,368.281,830.125,338.265z" style="fill:#FF7900;"/>
	<path d="M774.929,710.639c10.578-0.259,21.78-0.367,30.918,4.967c8.858,5.17,14.272,14.617,18.423,23.996
		c19.535,44.141,21.545,98.246,56.214,131.833c4.285,4.151,9.101,8.024,11.737,13.377c4.465,9.066,1.414,20.39-4.857,28.315
		c-6.271,7.925-15.229,13.181-23.97,18.253c-24.79,14.383-50.894,29.161-79.537,30.164c-4.817,0.169-9.757-0.084-14.227-1.888
		c-5.86-2.365-10.356-7.147-14.544-11.878c-39.69-44.84-69.928-100.25-75.816-160.551
		C672.925,722.239,715.789,712.089,774.929,710.639z" style="fill:#FF7900;"/>
	<path d="M944.6,1001.981c14.948-13.563,35.189-25.584,54.374-19.312c9.113,2.98,16.43,9.685,23.726,15.906
		c24.468,20.865,51.959,38.178,81.347,51.23c4.651,2.066,9.612,4.237,12.451,8.461c5.995,8.921-0.664,20.774-7.759,28.848
		c-12.251,13.941-26.426,26.188-41.997,36.286c-12.018,7.793-25.74,14.498-40.017,13.341c-15.266-1.237-28.234-11.125-40.496-20.302
		c-13.105-9.808-26.489-19.243-40.13-28.289c-10.559-7.002-28.066-13.778-35.689-24.134
		C895.7,1044.032,930.591,1014.692,944.6,1001.981z" style="fill:#FF7900;"/>
	<path d="M1190.892,1137.267c9.392-6.314,20.564-11.878,31.618-9.455c5.422,1.189,10.275,4.227,14.553,7.764
		c23.592,19.506,31.161,53.292,53.982,73.693c5.373,4.803,12.112,10.016,11.718,17.213c-0.392,7.166-7.67,11.665-14.076,14.901
		c-9.472,4.785-18.944,9.57-28.416,14.354c-11.75,5.935-24.764,12.041-37.572,9.001c-8.465-2.009-15.47-7.759-22.146-13.339
		c-16.246-13.58-53.695-34.298-55.536-57.983C1143.248,1170.652,1174.567,1148.416,1190.892,1137.267z" style="fill:#FF7900;"/>
</g>
<g id="Слой_5">
	<g>
		<g>
			<path d="M1292.754,1433.789c-3.063-26.077-10.902-52.007-20.32-76.402c-19.748-51.15-50.253-97.707-92.254-133.311
				c-42.313-35.869-91.745-62.327-140.277-88.646c-57.785-31.337-115.578-62.776-169.3-100.84
				c-43.343-30.71-85.59-65.258-119.286-106.609c-26.148-32.088-45.465-69.061-55.199-109.37
				c-11.349-46.994-10.105-96.171-4.233-143.851c7.68-62.353,22.2-124.699,45.432-183.131c20.7-52.064,49.15-101.279,84.954-144.429
				c29.186-35.173,62.883-71.334,107.199-86.571c30.141-10.363,66.441-11.783,93.491,7.438
				c26.831,19.066,30.538,53.281,22.036,83.093c-6.863,24.066-20.103,46.01-35.018,65.905
				c-21.256,28.354-47.966,51.411-72.082,77.161c-42.272,45.135-79.422,96.97-100.07,155.713
				c-16.435,46.758-20.854,97.954-7.151,145.976c13.163,46.13,42.318,85.945,76.094,119.298
				c38.03,37.553,82.615,68.005,127.077,97.336c26.977,17.797,54.219,35.187,81.306,52.814
				c29.586,19.253,60.019,37.952,87.771,59.817c43.571,34.329,80.262,77.003,105.436,126.558
				c18.713,36.837,31.03,77.286,35.534,118.387c1.639,14.955,2.289,30.023,1.755,45.061c-0.31,8.718,13.236,8.706,13.545,0
				c1.258-35.408-3.764-71.207-13.509-105.223c-13.561-47.332-36.853-91.39-67.635-129.761
				c-18.651-23.25-40.041-44.238-63.321-62.832c-27.669-22.099-57.907-40.99-87.536-60.313
				c-51.708-33.722-104.571-66.059-154.007-103.112c-39.256-29.423-76.255-62.995-103.111-104.413
				c-26.507-40.88-37.921-88.665-32.877-137.122c5.848-56.18,32.272-108.603,64.893-153.88
				c20.69-28.718,44.543-55.116,69.989-79.678c23.861-23.033,46.477-47.638,63.98-75.956
				c20.568-33.277,36.549-76.664,19.917-114.873c-13.055-29.992-43.918-45.735-75.366-48.107
				c-40.422-3.049-80.077,14.391-110.954,39.394c-19.809,16.041-37.53,35.283-53.949,54.713
				c-17.609,20.838-33.658,43.01-47.897,66.283c-31.98,52.271-54.765,109.889-69.771,169.21
				c-14.323,56.618-24.496,115.898-24.029,174.46c0.356,44.642,8.198,89.001,27.03,129.672
				c18.411,39.761,46.677,74.09,78.276,104.104c46.054,43.744,98.656,80.48,153.047,113.036
				c53.375,31.947,109.223,59.47,162.806,91.037c48.071,28.319,93.736,60.853,126.077,107.144
				c26.107,37.368,44.233,80.339,54.193,124.768c1.166,5.202,2.218,10.432,3.093,15.691c0.24,1.439,0.444,2.883,0.672,4.324
				c0.281,1.782-0.215-1.82,0.003,0.039C1280.214,1442.343,1293.771,1442.444,1292.754,1433.789L1292.754,1433.789z"/>
		</g>
	</g>
	<g>
		<g>
			<path d="M1734.696,2273.436c42.696-29.104,85.56-58.137,123.584-93.323c35.967-33.282,66.714-70.829,86.207-116.076
				c19.089-44.311,28.51-91.926,33.055-139.787c4.929-51.912,4.76-104.745,1.837-156.786
				c-2.796-49.773-10.111-99.705-27.475-146.638c-9.174-24.797-20.905-48.632-35.242-70.855
				c-15.877-24.61-34.857-46.819-55.301-67.727c-38.399-39.269-81.598-74.103-129.256-101.528
				c-38.74-22.292-80.284-39.495-123.177-51.975c-40.566-11.804-82.954-21.042-125.007-25.315
				c-45.772-4.65-92.558-2.948-137.997,4.245c-2.513,0.398-5.028,0.804-7.526,1.289c-8.548,1.661-4.929,14.718,3.601,13.061
				c32.065-6.23,65.761-7.913,98.538-7.48c46.25,0.612,91.86,8.742,136.684,19.742c40.304,9.891,79.726,23.34,117.023,41.621
				c45.317,22.212,87.138,50.989,124.769,84.569c42.494,37.92,80.887,80.566,106.14,132.027
				c21.561,43.937,32.913,92.146,37.972,140.644c5.17,49.563,5.667,100.146,3.628,149.904
				c-1.999,48.771-7.959,97.816-22.935,144.439c-13.701,42.654-35.662,80.752-65.921,113.774
				c-35.93,39.211-78.28,71.332-121.965,101.345c-9.333,6.412-18.713,12.755-28.07,19.133
				C1720.699,2266.621,1727.468,2278.363,1734.696,2273.436L1734.696,2273.436z"/>
		</g>
	</g>
	<g>
		<g>
			<path d="M1242.989,1321.894c-43.494,1.573-88.15,16.951-126.993,35.409c-72.408,34.409-129.787,90.872-175.969,155.486
				c-49.423,69.148-86.546,148.066-106.172,230.856c-11.142,47-14.855,94.562-16.69,142.709
				c-1.96,51.432-1.939,102.96,0.667,154.369c4.86,95.887,18.308,192.313,47.836,283.91c4.022,12.478,8.023,24.677,9.578,37.766
				c1.41,11.876,1.471,23.875,1.216,35.815c-0.416,19.483-2.885,40.542,3.164,59.446c12.457,38.932,29.535,77.383,47.797,113.925
				c15.339,30.695,32.773,60.263,49.882,89.987c21.896,38.04,42.461,76.897,69.737,111.479
				c16.067,20.371,35.504,41.974,60.308,51.583c18.009,6.977,42.619,3.598,52.582-14.804c6.271-11.583,5.355-25.563,3.268-38.106
				c-3.191-19.174-10.198-37.725-17.403-55.691c-17.607-43.906-35.182-87.356-47.358-133.171
				c-5.11-19.229-9.426-38.665-12.95-58.247c-3.162-17.574-7.559-36.468-7.724-54.366c-0.152-16.517,11.075-33.892,17.9-48.311
				c9.435-19.934,17.432-39.691,21.203-61.513c1.785-10.327,3.109-20.719,4.661-31.081c0.756-5.048,0.852-12.525,4.079-16.755
				c-2.549,1.038-5.099,2.075-7.648,3.113c38.041,6.028,76.154,11.618,114.252,17.267c43.391,6.434,86.434,12.281,130.378,12.868
				c15.983,0.214,31.965-0.095,47.935-0.752c4.73-0.195,9.458-0.425,14.188-0.634c1.888-0.083,3.776-0.172,5.665-0.226
				c2.485-0.07,5.238-0.534,0.763-1.167c-1.314-0.186-0.202-1.285-0.173,0.955c0.028,2.17,0.147,4.308,0.048,6.484
				c-0.31,6.776-1.393,13.511-2.521,20.189c-3.006,17.792-6.849,35.44-10.474,53.113c-4.136,20.163-9.737,40.979-11.122,61.556
				c-1.333,19.802,4.933,39.411,12.174,57.564c8.203,20.564,17.255,40.842,25.858,61.244c8.464,20.073,17.599,39.86,27.616,59.207
				c14.971,28.916,31.85,56.917,51.268,83.077c12.409,16.718,25.78,32.721,40.393,47.561c18.637,18.926,48.38,40.956,76.695,30.319
				c22.718-8.534,21.512-32.655,15.501-51.945c-7.016-22.517-15.97-44.458-24.198-66.547
				c-20.857-55.989-43.546-114.83-48.256-174.904c-2.413-30.784,4.338-61.204,13.072-90.61c2.637-8.88,5.355-18.317,9.802-26.507
				c3.848-7.086,9.654-13.225,14.99-19.181c24.633-27.491,52.612-51.673,77.781-78.603c26.676-28.542,45.156-62.423,57.586-99.294
				c12.436-36.886,21.792-75.263,24.741-114.147c2.949-38.888-1.305-77.803-9.548-115.827c-4.663-21.51-10.528-42.735-16.845-63.813
				c-2.496-8.329-15.573-4.781-13.061,3.601c12.183,40.649,22.891,82.156,25.96,124.621c2.817,38.988-1.335,77.781-10.833,115.646
				c-9.006,35.903-20.157,71.949-39.833,103.581c-21.648,34.8-53.785,61.173-82.273,90.131c-9.501,9.658-18.966,19.403-27.791,29.69
				c-4.87,5.677-10.051,11.586-13.374,18.346c-12.442,25.304-18.272,55.288-22.699,82.833c-4.133,25.716-0.808,52.096,4.186,77.454
				c6.033,30.634,15.2,60.616,25.239,90.147c9.095,26.752,19.139,53.159,29.033,79.621c6.079,16.26,14.149,33.496,16.763,50.789
				c1.829,12.099-3.741,22.092-16.405,23.638c-16.428,2.005-33.321-7.628-45.353-17.832c-14.632-12.409-27.481-27.59-39.458-42.497
				c-18.571-23.115-34.797-48.121-49.358-73.927c-20.488-36.312-36.051-74.476-52.651-112.618
				c-8.362-19.214-17.572-38.55-21.667-59.242c-3.969-20.06,1.206-39.856,5.089-59.534c3.897-19.753,8.19-39.428,11.982-59.202
				c2.512-13.101,5.489-26.682,5.615-40.08c0.072-7.741-1.539-16.629-10.742-17.505c-8.55-0.814-17.892,0.719-26.445,1.05
				c-36.937,1.427-73.958,0.695-110.73-3.246c-56.6-6.067-113.036-16.106-169.296-24.858c-1.955-0.304-3.909-0.608-5.863-0.917
				c-3.351-0.531-5.633,0.471-7.648,3.112c-3.336,4.372-4.016,11.026-4.869,16.26c-1.593,9.775-2.76,19.615-4.334,29.393
				c-3.53,21.929-10.306,41.536-19.749,61.596c-7.346,15.607-16.812,31.785-19.888,48.958c-2.795,15.603,2.016,33.465,4.441,48.936
				c6.07,38.723,15.208,76.88,27.228,114.186c7.194,22.325,15.345,44.336,24.19,66.058c8.468,20.795,17.641,41.317,24.085,62.869
				c6.254,20.917,14.827,55.059-15.007,60.28c-16.69,2.92-34.795-10.507-47.224-21.996c-28.199-26.064-49.337-59.721-68.315-92.764
				c-18.679-32.521-37.546-64.986-55.757-97.773c-16.775-30.203-31.924-61.208-45.081-93.161
				c-4.212-10.229-8.263-20.525-12.196-30.865c-3.743-9.84-8.326-19.822-10.418-30.171c-4.088-20.229-0.699-41.855-0.908-62.324
				c-0.122-11.925-1.004-23.863-3.209-35.594c-2.152-11.448-6.202-22.315-9.696-33.392c-6.782-21.497-12.665-43.274-17.77-65.228
				c-10.725-46.116-18.048-92.985-22.788-140.081c-4.934-49.018-7.15-98.295-7.31-147.553c-0.161-49.472,0.47-99.633,5.847-148.851
				c9.421-86.235,39.861-169.782,83.716-244.351c38.25-65.037,87.459-127.169,150.133-170.188
				c48.38-33.208,106.343-57.515,164.806-63.808c3.039-0.327,6.096-0.638,9.152-0.749
				C1251.679,1335.125,1251.721,1321.578,1242.989,1321.894L1242.989,1321.894z"/>
		</g>
	</g>
	<g>
		<g>
			<path d="M1329.344,1591.515c-19.057,15.042-35.833,32.725-50.137,52.33c-3.972,5.444-7.725,11.045-11.264,16.78
				c-1.863,3.019-0.751,7.585,2.43,9.266c3.311,1.749,7.278,0.793,9.266-2.43c3.087-5.003,6.336-9.904,9.754-14.688
				c1.75-2.45,3.548-4.865,5.377-7.257c0.727-0.951-0.184,0.309-0.27,0.349c0.254-0.119,0.617-0.792,0.794-1.017
				c0.443-0.564,0.887-1.126,1.334-1.687c0.939-1.177,1.888-2.346,2.847-3.506c7.489-9.063,15.591-17.619,24.235-25.588
				c4.902-4.519,9.98-8.844,15.214-12.975c1.269-1.001,1.984-3.255,1.984-4.789c0-1.661-0.738-3.645-1.984-4.789
				c-1.291-1.185-2.985-2.064-4.789-1.984C1332.223,1589.617,1330.833,1590.34,1329.344,1591.515L1329.344,1591.515z"/>
		</g>
	</g>
	<g>
		<g>
			<path d="M1268.716,1615.772c0.622,0.477,1.244,0.955,1.866,1.433c0.278,0.214,0.987,0.802-0.254-0.196
				c0.244,0.196,0.496,0.384,0.744,0.577c1.239,0.962,2.475,1.928,3.708,2.897c2.281,1.794,4.55,3.603,6.808,5.425
				c4.517,3.644,8.989,7.344,13.415,11.097c8.912,7.558,17.639,15.335,26.168,23.322c4.809,4.503,9.553,9.074,14.237,13.707
				c2.522,2.495,7.094,2.705,9.578,0c2.471-2.692,2.691-6.916,0-9.578c-16.783-16.603-34.379-32.378-52.723-47.239
				c-5.507-4.461-11.085-8.832-16.711-13.142c-1.295-0.992-3.73-1.093-5.219-0.683c-1.571,0.432-3.273,1.647-4.047,3.112
				c-0.83,1.572-1.247,3.476-0.683,5.219C1266.183,1613.516,1267.234,1614.636,1268.716,1615.772L1268.716,1615.772z"/>
		</g>
	</g>
	<g>
		<g>
			<path d="M1135.89,2304.134c-0.217-0.029,1.83,0.256,1.107,0.148c-0.14-0.021-0.28-0.039-0.42-0.059
				c-0.283-0.04-0.567-0.082-0.85-0.124c-0.678-0.102-1.355-0.209-2.031-0.322c-1.315-0.219-2.628-0.457-3.937-0.709
				c-2.76-0.532-5.507-1.131-8.244-1.773c-6.027-1.416-12.004-3.045-17.939-4.81c-11.68-3.474-23.244-7.429-34.527-12.039
				c-0.667-0.273-1.332-0.55-1.998-0.826c-0.943-0.391,1.614,0.688,0.371,0.156c-0.361-0.155-0.723-0.309-1.083-0.464
				c-1.202-0.519-2.399-1.049-3.59-1.594c-2.161-0.989-4.303-2.023-6.398-3.146c-3.121-1.673-7.515-0.885-9.266,2.429
				c-1.662,3.146-0.905,7.479,2.43,9.266c9.53,5.107,19.811,8.959,29.977,12.584c11.994,4.276,24.194,8.058,36.571,11.062
				c6.552,1.59,13.144,2.874,19.826,3.766c1.587,0.212,3.715-0.91,4.789-1.984c1.175-1.175,2.059-3.102,1.984-4.789
				c-0.078-1.751-0.654-3.568-1.984-4.789C1139.26,2304.815,1137.779,2304.386,1135.89,2304.134L1135.89,2304.134z"/>
		</g>
	</g>
	<g>
		<g>
			<path d="M1535.009,1362.828c2.008-0.902,4.023-1.788,6.048-2.653c0.217-0.093,0.434-0.184,0.651-0.277
				c0.86-0.368-1.177,0.492-0.314,0.132c0.436-0.181,0.87-0.364,1.306-0.545c1.089-0.452,2.181-0.898,3.275-1.339
				c4.011-1.615,8.053-3.153,12.123-4.613c8.288-2.974,16.691-5.625,25.185-7.946c4.778-1.305,9.585-2.503,14.415-3.6
				c3.458-0.786,5.821-4.96,4.73-8.331c-1.172-3.622-4.626-5.572-8.331-4.73c-17.328,3.939-34.345,9.217-50.848,15.808
				c-5.07,2.025-10.098,4.159-15.077,6.397c-1.453,0.653-2.708,2.578-3.112,4.047c-0.446,1.621-0.245,3.78,0.683,5.219
				c0.932,1.446,2.321,2.719,4.047,3.112C1531.671,1363.939,1533.26,1363.614,1535.009,1362.828L1535.009,1362.828z"/>
		</g>
	</g>
	<g>
		<g>
			<path d="M1587.875,1394.531c3.671-2.385,7.451-4.598,11.336-6.617c2.006-1.043,4.039-2.035,6.095-2.977
				c0.929-0.425,1.862-0.84,2.8-1.244c1.557-0.671-0.927,0.376,0.197-0.083c0.608-0.249,1.215-0.497,1.826-0.74
				c8.205-3.256,16.726-5.716,25.405-7.325c1.148-0.213,2.298-0.411,3.451-0.594c0.648-0.103,1.298-0.201,1.948-0.294
				c0.216-0.031,0.434-0.056,0.65-0.092c-1.881,0.314-0.715,0.095-0.282,0.04c2.533-0.322,5.075-0.567,7.622-0.747
				c3.526-0.249,6.944-2.937,6.772-6.773c-0.155-3.455-2.988-7.04-6.772-6.772c-19.025,1.344-37.532,6.391-54.598,14.911
				c-4.57,2.281-9.002,4.828-13.285,7.61c-2.968,1.927-4.476,6.092-2.43,9.266
				C1580.52,1395.065,1584.697,1396.594,1587.875,1394.531L1587.875,1394.531z"/>
		</g>
	</g>
	<g>
		<g>
			<path d="M1631.504,1434.183c13.008-5.125,26.229-9.71,39.531-14.009c14.136-4.569,28.384-8.803,42.739-12.628
				c7.369-1.963,14.768-3.814,22.208-5.488c3.46-0.778,5.819-4.965,4.73-8.331c-1.174-3.628-4.624-5.564-8.331-4.73
				c-13.641,3.069-27.154,6.704-40.573,10.622c-14.26,4.163-28.426,8.665-42.45,13.566c-7.199,2.516-14.36,5.142-21.455,7.937
				c-1.697,0.668-3.093,1.482-4.047,3.112c-0.849,1.452-1.209,3.591-0.683,5.219
				C1624.204,1432.64,1627.975,1435.574,1631.504,1434.183L1631.504,1434.183z"/>
		</g>
	</g>
	<g>
		<g>
			<path d="M1753.427,1614.348c23.57,1.107,47.533-2.721,69.564-11.18c6.552-2.516,12.975-5.383,19.192-8.641
				c3.143-1.647,4.348-6.29,2.43-9.266c-2.063-3.199-5.904-4.192-9.266-2.43c-2.518,1.32-5.067,2.58-7.65,3.771
				c-1.223,0.564-2.453,1.112-3.689,1.646c-0.125,0.054-1.501,0.633-0.43,0.187c1.071-0.447-0.308,0.126-0.434,0.178
				c-0.692,0.285-1.385,0.566-2.081,0.841c-5.286,2.096-10.679,3.92-16.151,5.467c-5.472,1.547-11.023,2.814-16.624,3.798
				c-1.327,0.233-2.656,0.45-3.988,0.651c-0.565,0.085-1.724,0.052-2.222,0.32c0.103-0.056,1.691-0.219,0.465-0.064
				c-0.445,0.056-0.891,0.113-1.336,0.167c-2.823,0.341-5.654,0.61-8.49,0.806c-6.421,0.444-12.862,0.507-19.291,0.205
				c-3.544-0.167-6.931,3.234-6.773,6.772C1746.825,1611.387,1749.63,1614.17,1753.427,1614.348L1753.427,1614.348z"/>
		</g>
	</g>
	<g>
		<g>
			<path d="M1723.393,1567.502c25.263-2.35,49.84-9.697,72.172-21.774c6.052-3.273,11.906-6.9,17.54-10.848
				c1.47-1.03,2.622-2.266,3.112-4.047c0.446-1.621,0.245-3.78-0.683-5.219c-1.854-2.876-6.163-4.604-9.266-2.43
				c-9.846,6.9-20.376,12.803-31.404,17.592c-0.266,0.115-0.532,0.229-0.798,0.344c-1.42,0.619,1.448-0.599,0.017-0.006
				c-0.669,0.277-1.338,0.554-2.01,0.825c-1.41,0.569-2.828,1.12-4.252,1.652c-2.781,1.04-5.587,2.012-8.415,2.914
				c-5.657,1.804-11.402,3.328-17.21,4.563c-3.258,0.693-6.535,1.294-9.826,1.803c-0.859,0.133-1.719,0.257-2.579,0.379
				c-1.549,0.22,1.631-0.203,0.078-0.01c-0.431,0.054-0.862,0.11-1.293,0.162c-1.725,0.21-3.453,0.393-5.184,0.554
				c-1.833,0.171-3.446,0.641-4.789,1.984c-1.175,1.175-2.059,3.102-1.984,4.789
				C1716.772,1564.117,1719.616,1567.853,1723.393,1567.502L1723.393,1567.502z"/>
		</g>
	</g>
	<g>
		<g>
			<path d="M1682.553,1506.261c15.13-0.657,30.239-3.136,44.763-7.431c14.495-4.287,28.558-10.341,41.61-17.966
				c7.588-4.433,14.773-9.461,21.674-14.897c1.269-0.999,1.984-3.256,1.984-4.789c0-1.661-0.738-3.645-1.984-4.789
				c-1.291-1.185-2.985-2.064-4.789-1.984c-1.911,0.086-3.298,0.81-4.789,1.984c-0.333,0.262-0.675,0.515-1.001,0.785
				c-0.025,0.021,1.123-0.861,0.532-0.411c-0.169,0.128-0.336,0.258-0.505,0.387c-0.731,0.557-1.466,1.108-2.205,1.653
				c-1.479,1.09-2.974,2.158-4.486,3.201c-2.966,2.047-5.994,4.003-9.079,5.865c-6.171,3.725-12.567,7.076-19.139,10.034
				c-0.773,0.348-1.549,0.691-2.327,1.028c-0.389,0.168-0.783,0.327-1.169,0.502c-0.035,0.016,1.336-0.557,0.641-0.271
				c-0.261,0.108-0.522,0.218-0.783,0.325c-1.633,0.674-3.276,1.324-4.928,1.951c-3.37,1.277-6.779,2.454-10.219,3.529
				c-6.88,2.149-13.888,3.888-20.976,5.199c-2.015,0.373-4.036,0.711-6.063,1.014c-0.489,0.073-0.979,0.144-1.468,0.213
				c-0.21,0.03-0.421,0.055-0.63,0.088c0.287-0.046,1.477-0.193,0.54-0.073c-0.981,0.125-1.963,0.247-2.946,0.358
				c-4.073,0.46-8.161,0.773-12.256,0.951c-3.535,0.154-6.941,3.005-6.773,6.772
				C1675.939,1503.027,1678.762,1506.426,1682.553,1506.261L1682.553,1506.261z"/>
		</g>
	</g>
	<g>
		<g>
			<path d="M1680.815,1465.328c24.589-5.33,48.503-13.421,71.374-23.895c6.279-2.876,12.467-5.946,18.56-9.196
				c3.13-1.669,4.358-6.275,2.43-9.266c-2.051-3.181-5.918-4.215-9.266-2.43c-5.417,2.889-10.907,5.637-16.471,8.231
				c-2.782,1.297-5.581,2.556-8.397,3.777c-0.634,0.275-1.268,0.547-1.903,0.818c-0.393,0.168-1.458,0.595,0.134-0.054
				c-0.284,0.116-0.566,0.238-0.849,0.356c-1.558,0.651-3.12,1.29-4.687,1.917c-11.255,4.505-22.751,8.409-34.422,11.689
				c-6.648,1.869-13.354,3.529-20.103,4.992c-3.467,0.751-5.813,4.984-4.73,8.331
				C1673.666,1464.248,1677.101,1466.133,1680.815,1465.328L1680.815,1465.328z"/>
		</g>
	</g>
	<g>
		<g>
			<path d="M1480.134,1336.513c2.582-1.474,5.228-2.83,7.941-4.046c0.271-0.122,0.544-0.24,0.815-0.361
				c1.384-0.617-1.008,0.407-0.182,0.071c0.688-0.28,1.375-0.562,2.068-0.831c1.386-0.537,2.785-1.039,4.195-1.507
				c2.751-0.912,5.545-1.691,8.37-2.335c1.449-0.33,2.906-0.624,4.37-0.881c0.659-0.116,1.318-0.224,1.979-0.325
				c0.28-0.043,0.859-0.004,1.103-0.162c-0.306,0.041-0.611,0.082-0.917,0.123c0.295-0.038,0.59-0.075,0.885-0.11
				c1.861-0.227,3.411-0.605,4.789-1.984c1.175-1.175,2.059-3.102,1.984-4.789c-0.078-1.752-0.654-3.568-1.984-4.789
				c-1.23-1.129-3.05-2.196-4.789-1.984c-13.215,1.613-25.876,5.595-37.465,12.212c-3.078,1.758-4.398,6.213-2.43,9.266
				C1472.872,1337.192,1476.84,1338.393,1480.134,1336.513L1480.134,1336.513z"/>
		</g>
	</g>
	<g>
		<g>
			<path d="M1641.218,2025.654c1.365,2.025,2.6,4.131,3.678,6.322c0.253,0.515,0.498,1.035,0.735,1.558
				c0.118,0.26,0.218,0.534,0.348,0.788c-0.808-1.571-0.27-0.641-0.104-0.226c0.453,1.133,0.867,2.281,1.241,3.443
				c0.726,2.254,1.302,4.557,1.722,6.888c0.114,0.634,0.178,1.283,0.309,1.913c-0.062-0.298-0.176-1.456-0.075-0.519
				c0.031,0.285,0.065,0.57,0.094,0.856c0.13,1.286,0.206,2.575,0.245,3.867c0.106,3.538,3.039,6.94,6.772,6.772
				c3.578-0.16,6.887-2.979,6.772-6.772c-0.338-11.231-3.748-22.388-10.042-31.724c-1.977-2.932-6.055-4.5-9.266-2.43
				C1640.726,2018.272,1639.1,2022.513,1641.218,2025.654L1641.218,2025.654z"/>
		</g>
	</g>
	<g>
		<g>
			<path d="M1678.451,2011.463c2.117,3.06,3.998,6.276,5.602,9.634c0.37,0.775,0.718,1.559,1.068,2.343
				c0.557,1.248-0.582-1.437,0.061,0.164c0.187,0.465,0.369,0.931,0.545,1.4c0.631,1.673,1.198,3.371,1.7,5.087
				s0.939,3.452,1.31,5.201c0.193,0.91,0.367,1.823,0.524,2.74c0.084,0.494,0.157,0.989,0.237,1.483
				c0.216,1.333-0.181-1.547-0.01-0.1c0.437,3.7,0.608,7.41,0.474,11.134c-0.127,3.544,3.206,6.932,6.772,6.772
				c3.778-0.169,6.636-2.975,6.773-6.772c0.581-16.15-4.161-32.624-13.361-45.922c-2.012-2.907-6.03-4.516-9.266-2.43
				C1677.99,2004.06,1676.295,2008.347,1678.451,2011.463L1678.451,2011.463z"/>
		</g>
	</g>
	<g>
		<g>
			<path d="M1725.178,2008.196c1.213,3.912,2.258,7.874,3.113,11.88c0.427,2.002,0.809,4.015,1.145,6.035
				c0.181,1.088,0.342,2.178,0.502,3.269c0.241,1.642-0.189-1.575,0.009,0.073c0.066,0.547,0.135,1.094,0.198,1.642
				c0.939,8.22,1.108,16.513,0.533,24.766c-0.247,3.542,3.291,6.928,6.773,6.772c3.88-0.174,6.508-2.979,6.772-6.772
				c1.199-17.227-0.87-34.772-5.983-51.266c-1.048-3.379-4.773-5.882-8.331-4.73
				C1726.507,2000.966,1724.055,2004.572,1725.178,2008.196L1725.178,2008.196z"/>
		</g>
	</g>
	<g>
		<g>
			<path d="M1654.696,2178.123c-0.187,3.777-0.508,7.546-0.978,11.298c-0.062,0.496,0.009,1.893-0.005,0.074
				c0.004,0.456-0.135,0.955-0.201,1.404c-0.127,0.857-0.262,1.713-0.404,2.568c-0.31,1.865-0.656,3.724-1.037,5.576
				c-1.509,7.333-3.582,14.54-6.172,21.563c-1.228,3.33,1.371,7.566,4.73,8.331c3.832,0.873,7.016-1.165,8.331-4.73
				c5.444-14.765,8.504-30.371,9.281-46.084c0.175-3.544-3.24-6.931-6.772-6.773
				C1657.649,2171.521,1654.884,2174.326,1654.696,2178.123L1654.696,2178.123z"/>
		</g>
	</g>
	<g>
		<g>
			<path d="M1687.556,2176.303c0.133,4.123,0.047,8.249-0.281,12.361c-0.073,0.914-0.157,1.826-0.252,2.737
				c-0.056,0.532-0.115,1.063-0.179,1.594c-0.027,0.227-0.055,0.455-0.083,0.682c-0.097,0.752-0.077,0.606,0.062-0.438
				c0.123,0.254-0.158,1.104-0.197,1.36c-0.069,0.453-0.14,0.906-0.214,1.358c-0.173,1.055-0.361,2.108-0.565,3.157
				c-0.757,3.898-1.724,7.755-2.896,11.549c-0.586,1.897-1.224,3.778-1.913,5.64c-0.371,1.003-0.756,2-1.157,2.991
				c-0.171,0.424-0.359,0.844-0.523,1.271c0.715-1.86-0.061,0.116-0.224,0.486c-0.761,1.724-1.204,3.326-0.683,5.219
				c0.433,1.571,1.647,3.273,3.112,4.047c2.94,1.553,7.739,1.031,9.266-2.43c7.167-16.238,10.847-33.805,10.274-51.585
				c-0.114-3.537-3.033-6.94-6.773-6.772C1690.757,2169.69,1687.434,2172.51,1687.556,2176.303L1687.556,2176.303z"/>
		</g>
	</g>
	<g>
		<g>
			<path d="M1725.496,2174.567c0.115,3.665-0.012,7.331-0.406,10.977c-0.047,0.437-0.102,0.874-0.153,1.31
				c-0.183,1.565,0.247-1.614,0.004-0.057c-0.135,0.869-0.272,1.738-0.43,2.603c-0.328,1.803-0.72,3.594-1.172,5.37
				c-0.889,3.486-2.035,6.886-3.363,10.228c-0.576,1.45,0.629-1.424,0.002,0.004c-0.177,0.403-0.353,0.805-0.534,1.206
				c-0.363,0.801-0.739,1.596-1.129,2.385c-0.845,1.709-1.757,3.382-2.721,5.026c-1.794,3.058-0.8,7.56,2.43,9.266
				c3.251,1.718,7.351,0.835,9.266-2.43c8.094-13.794,12.254-29.897,11.751-45.89c-0.111-3.538-3.036-6.94-6.773-6.773
				C1728.694,2167.955,1725.376,2170.774,1725.496,2174.567L1725.496,2174.567z"/>
		</g>
	</g>
	<g>
		<g>
			<path d="M1894.707,2050.827c-0.08,0.197-0.162,0.392-0.245,0.588c0.228-0.539,0.455-1.079,0.683-1.618
				c-1.348,3.125-3.079,6.05-5.153,8.747c0.353-0.457,0.706-0.914,1.059-1.371c-2.095,2.681-4.497,5.088-7.176,7.186
				c0.457-0.353,0.914-0.706,1.371-1.059c-1.936,1.491-3.989,2.805-6.159,3.93c-3.151,1.633-4.342,6.299-2.43,9.266
				c2.07,3.211,5.896,4.177,9.266,2.43c4.714-2.444,9.086-5.81,12.659-9.739c3.999-4.397,6.932-9.287,9.186-14.758
				c0.622-1.51,0.102-3.877-0.683-5.219c-0.822-1.405-2.433-2.745-4.047-3.112c-1.734-0.395-3.68-0.309-5.219,0.683
				C1896.238,2047.798,1895.417,2049.102,1894.707,2050.827L1894.707,2050.827z" style="fill:#FFA400;"/>
		</g>
	</g>
	<g>
		<g>
			<path d="M1838.923,2130.733c-4.187,4.34-8.593,8.463-13.215,12.337c-1.155,0.968-2.324,1.921-3.504,2.858
				c-0.236,0.187-0.473,0.374-0.71,0.56c-0.277,0.218-1.574,1.12-0.058,0.05c-0.553,0.391-1.079,0.823-1.622,1.229
				c-2.474,1.852-5,3.632-7.57,5.348c-2.941,1.965-4.494,6.065-2.43,9.266c1.89,2.932,6.115,4.534,9.266,2.43
				c10.629-7.1,20.545-15.299,29.421-24.5c2.462-2.552,2.728-7.073,0-9.578C1845.837,2128.288,1841.551,2128.009,1838.923,2130.733
				L1838.923,2130.733z" style="fill:#FFA400;"/>
		</g>
	</g>
	<g>
		<g>
			<path d="M1799.009,2135.114c5.228-4.819,10.457-9.638,15.685-14.457c2.612-2.407,2.62-7.172,0-9.578
				c-2.794-2.565-6.792-2.568-9.578,0c-5.228,4.819-10.457,9.638-15.685,14.457c-2.612,2.407-2.62,7.172,0,9.578
				C1792.226,2137.679,1796.223,2137.682,1799.009,2135.114L1799.009,2135.114z" style="fill:#FFA400;"/>
		</g>
	</g>
	<g>
		<g>
			<path d="M1776.164,2215.635c2.338-1.804,4.675-3.607,7.013-5.411c0.789-0.426,1.423-1.007,1.9-1.744
				c0.599-0.654,1.003-1.422,1.212-2.303c0.282-0.9,0.323-1.801,0.121-2.701c-0.041-0.901-0.309-1.74-0.804-2.518
				c-0.932-1.446-2.321-2.719-4.047-3.112c-0.6-0.081-1.2-0.161-1.8-0.242c-1.222,0.004-2.362,0.312-3.418,0.925
				c-2.338,1.804-4.675,3.607-7.013,5.411c-0.789,0.426-1.423,1.007-1.9,1.744c-0.599,0.654-1.003,1.422-1.212,2.303
				c-0.282,0.9-0.323,1.801-0.121,2.701c0.041,0.901,0.309,1.74,0.804,2.518c0.932,1.446,2.321,2.719,4.047,3.112
				c0.6,0.081,1.2,0.161,1.8,0.242C1773.968,2216.555,1775.107,2216.247,1776.164,2215.635L1776.164,2215.635z" style="fill:#FFA400;"/>
		</g>
	</g>
	<g>
		<g>
			<path d="M833.562,367.086c-14.796,14.376-28.133,30.246-39.888,47.198c-11.506,16.594-21.41,34.3-29.511,52.797
				c-4.762,10.873-8.987,21.967-12.536,33.295c-1.059,3.381,1.25,7.538,4.73,8.331c3.684,0.839,7.197-1.109,8.331-4.73
				c1.499-4.784,3.109-9.533,4.838-14.239c0.864-2.353,1.757-4.695,2.679-7.026c0.435-1.101,0.877-2.199,1.324-3.295
				c0.237-0.58,0.476-1.159,0.716-1.738c0.107-0.257,0.215-0.514,0.322-0.771c0.579-1.392-0.625,1.465-0.033,0.078
				c3.939-9.222,8.293-18.262,13.087-27.07c4.76-8.746,9.937-17.265,15.507-25.519c2.765-4.098,5.628-8.131,8.584-12.093
				c0.749-1.005,1.505-2.005,2.267-3c0.169-0.221,0.339-0.442,0.509-0.663c0.694-0.904-0.212,0.278-0.293,0.379
				c0.435-0.543,0.855-1.099,1.286-1.646c1.549-1.97,3.123-3.922,4.719-5.854c7.186-8.696,14.848-16.993,22.939-24.855
				c2.545-2.473,2.669-7.128,0-9.578C840.405,364.575,836.278,364.447,833.562,367.086L833.562,367.086z"/>
		</g>
	</g>
	<g>
		<g>
			<path d="M851.221,396.983c-19.355,22.972-36.681,47.658-51.534,73.772c-4.108,7.223-8.026,14.554-11.758,21.978
				c-1.589,3.162-0.943,7.484,2.43,9.266c3.075,1.625,7.567,0.95,9.266-2.43c13.164-26.191,28.7-51.178,46.389-74.553
				c0.638-0.843,1.279-1.685,1.923-2.524c0.276-0.359,0.547-0.724,0.829-1.078c-1.229,1.541,0.09-0.113,0.33-0.42
				c1.207-1.549,2.424-3.091,3.65-4.625c2.641-3.305,5.327-6.573,8.052-9.808c1.181-1.402,1.984-2.897,1.984-4.789
				c0-1.661-0.738-3.645-1.984-4.789C858.285,394.675,853.659,394.09,851.221,396.983L851.221,396.983z"/>
		</g>
	</g>
	<g>
		<g>
			<path d="M895.176,397.501c-8.602,13.039-17.444,25.919-26.528,38.628c-4.542,6.354-9.143,12.666-13.803,18.934
				c-2.282,3.07-4.579,6.13-6.89,9.178c-1.155,1.524-2.314,3.046-3.476,4.565c-0.581,0.76-1.163,1.518-1.746,2.277
				c-0.291,0.379-0.583,0.758-0.875,1.137c-0.195,0.253-0.389,0.505-0.584,0.757c0.572-0.74,0.633-0.818,0.182-0.236
				c-5.369,6.931-10.803,13.81-16.311,20.631c-1.167,1.445-1.984,2.859-1.984,4.789c0,1.661,0.738,3.645,1.984,4.789
				c2.467,2.265,7.201,2.943,9.578,0c19.991-24.754,39.084-50.237,57.167-76.418c5.073-7.345,10.066-14.744,14.981-22.195
				c1.955-2.964,0.684-7.621-2.43-9.266C901.049,393.278,897.263,394.338,895.176,397.501L895.176,397.501z"/>
		</g>
	</g>
	<g>
		<g>
			<path d="M928.325,423.107c-4.081,6.43-8.326,12.755-12.739,18.962c-2.185,3.073-4.41,6.118-6.674,9.133
				c-0.577,0.769-1.157,1.535-1.739,2.3c-0.269,0.353-0.538,0.706-0.808,1.058c-0.135,0.176-0.27,0.352-0.405,0.528
				c-0.534,0.696,0.024-0.035,0.246-0.317c-1.189,1.511-2.363,3.033-3.559,4.538c-9.479,11.922-19.587,23.344-30.267,34.203
				c-6.015,6.115-12.213,12.047-18.578,17.796c-2.637,2.381-2.602,7.189,0,9.578c2.817,2.586,6.765,2.54,9.578,0
				c11.359-10.259,22.179-21.111,32.392-32.511c10.547-11.772,20.452-24.129,29.702-36.945c5.063-7.015,9.911-14.183,14.547-21.487
				c1.902-2.996,0.723-7.6-2.43-9.266C934.245,418.91,930.354,419.909,928.325,423.107L928.325,423.107z"/>
		</g>
	</g>
	<g>
		<g>
			<path d="M712.332,799.667c0.955,18.186,4.522,36.26,10.678,53.401c6.153,17.131,14.604,33.445,25.355,48.145
				c6.183,8.454,12.976,16.441,20.471,23.761c2.537,2.478,7.083,2.717,9.578,0c2.458-2.677,2.708-6.933,0-9.578
				c-3.102-3.03-6.097-6.167-8.97-9.415c-1.481-1.674-2.93-3.376-4.347-5.105c-0.644-0.786-1.281-1.577-1.912-2.373
				c-0.334-0.422-0.645-0.879-1.003-1.279c0.078,0.087,0.997,1.303,0.314,0.406c-0.205-0.27-0.411-0.538-0.616-0.808
				c-5.276-6.966-10.045-14.314-14.273-21.962c-2.098-3.795-4.062-7.664-5.888-11.597c-0.457-0.983-0.905-1.971-1.344-2.962
				c-0.192-0.434-0.383-0.868-0.571-1.303c-0.108-0.249-0.215-0.497-0.322-0.747c-0.416-0.97-0.085-0.217,0.127,0.308
				c-0.811-2.011-1.643-4.012-2.412-6.041c-3.097-8.172-5.616-16.562-7.518-25.092c-1.062-4.762-1.906-9.563-2.602-14.391
				c-0.128-0.89,0.193,1.484,0.078,0.592c-0.043-0.336-0.088-0.672-0.13-1.008c-0.076-0.605-0.149-1.21-0.219-1.816
				c-0.14-1.211-0.267-2.424-0.382-3.638c-0.236-2.496-0.416-4.997-0.547-7.5c-0.185-3.532-2.982-6.942-6.773-6.773
				C715.594,793.052,712.133,795.878,712.332,799.667L712.332,799.667z"/>
		</g>
	</g>
	<g>
		<g>
			<path d="M749.847,840.448c9.363,15.902,20.025,31.002,31.747,45.251c1.039,1.263,3.221,1.984,4.789,1.984
				c1.661,0,3.645-0.738,4.789-1.984c2.68-2.919,2.411-6.647,0-9.578c-1.431-1.74-2.848-3.492-4.245-5.259
				c-0.722-0.913-1.462-1.817-2.155-2.753c0.163,0.211,0.326,0.422,0.489,0.633c-0.19-0.246-0.379-0.493-0.568-0.739
				c-0.378-0.493-0.754-0.988-1.129-1.483c-2.626-3.469-5.185-6.987-7.676-10.554c-5.071-7.261-9.852-14.722-14.346-22.354
				c-1.798-3.053-6.185-4.416-9.266-2.43C749.201,833.165,747.923,837.181,749.847,840.448L749.847,840.448z"/>
		</g>
	</g>
	<g>
		<g>
			<path d="M773.999,771.337c0.66,15.789,3.586,31.529,8.75,46.466c5.16,14.924,12.338,29.19,21.501,42.058
				c5.297,7.44,11.154,14.486,17.605,20.953c2.506,2.512,7.105,2.693,9.578,0c2.484-2.706,2.674-6.898,0-9.578
				c-2.686-2.693-5.277-5.479-7.758-8.362c-1.196-1.39-2.366-2.801-3.511-4.232c-0.297-0.371-0.592-0.743-0.886-1.117
				c-0.126-0.16-0.25-0.322-0.376-0.481c-0.458-0.58,0.465,0.605,0.436,0.565c-0.604-0.819-1.233-1.621-1.838-2.441
				c-4.475-6.065-8.511-12.453-12.079-19.093c-1.768-3.291-3.421-6.644-4.955-10.05c-0.363-0.805-0.719-1.613-1.068-2.424
				c-0.107-0.249-0.21-0.501-0.32-0.749c-0.023-0.051,0.571,1.371,0.288,0.679c-0.206-0.503-0.416-1.004-0.62-1.508
				c-0.689-1.7-1.349-3.411-1.979-5.133c-2.591-7.078-4.681-14.341-6.241-21.715c-0.436-2.059-0.83-4.127-1.182-6.202
				c-0.182-1.071-0.352-2.144-0.512-3.218c-0.07-0.47-0.135-0.941-0.202-1.411c-0.128-0.891,0.191,1.482,0.079,0.589
				c-0.034-0.269-0.07-0.539-0.104-0.808c-0.532-4.246-0.882-8.512-1.06-12.787c-0.148-3.535-3.009-6.941-6.773-6.772
				C777.229,764.723,773.84,767.546,773.999,771.337L773.999,771.337z"/>
		</g>
	</g>
	<g>
		<g>
			<path d="M960.884,1064.361c15.618,18.803,36.327,33.04,59.173,41.589c6.251,2.339,12.674,4.195,19.206,5.564
				c3.458,0.725,7.484-1.012,8.331-4.73c0.773-3.394-1.022-7.554-4.73-8.331c-5.683-1.191-11.283-2.749-16.76-4.676
				c-1.322-0.465-2.636-0.951-3.942-1.457c-0.622-0.241-1.242-0.487-1.861-0.738c-0.371-0.15-0.741-0.304-1.111-0.456
				c-1.189-0.487,1.412,0.614,0.143,0.059c-2.692-1.176-5.355-2.405-7.973-3.739c-5.113-2.606-10.061-5.536-14.803-8.768
				c-1.103-0.752-2.194-1.52-3.274-2.304c-0.594-0.431-1.184-0.867-1.771-1.308c-0.267-0.2-0.532-0.403-0.798-0.604
				c-1.061-0.8,1.257,0.985-0.054-0.043c-2.257-1.77-4.458-3.613-6.597-5.525c-4.877-4.359-9.42-9.079-13.599-14.11
				c-2.273-2.736-7.259-2.526-9.578,0C958.214,1057.692,958.46,1061.442,960.884,1064.361L960.884,1064.361z"/>
		</g>
	</g>
	<g>
		<g>
			<path d="M990.328,1041.886c20.353,16.457,42.702,30.292,66.687,40.803c7.044,3.087,14.187,5.943,21.44,8.501
				c3.345,1.18,7.558-1.336,8.331-4.73c0.863-3.789-1.148-7.068-4.73-8.331c-3.039-1.072-6.062-2.19-9.064-3.363
				c-1.365-0.533-2.725-1.076-4.081-1.63c-0.678-0.277-1.355-0.556-2.031-0.839c-0.135-0.057-0.27-0.113-0.405-0.17
				c-0.675-0.284-0.54-0.227,0.403,0.17c-0.053,0.056-1.037-0.443-1.212-0.518c-5.787-2.488-11.491-5.168-17.101-8.032
				c-11.22-5.728-22.064-12.194-32.436-19.345c-2.894-1.995-5.752-4.044-8.571-6.145c-0.763-0.569-1.524-1.142-2.282-1.719
				c-0.291-0.222-0.582-0.445-0.873-0.667c-1.081-0.824,1.166,0.908-0.194-0.15c-1.445-1.125-2.878-2.264-4.302-3.416
				c-1.444-1.167-2.86-1.984-4.789-1.984c-1.661,0-3.645,0.738-4.789,1.984C988.062,1034.777,987.386,1039.508,990.328,1041.886
				L990.328,1041.886z"/>
		</g>
	</g>
	<g>
		<g>
			<path d="M1175.372,1200.802c13.441,10.819,27.434,20.943,41.996,30.203c4.077,2.592,8.196,5.116,12.354,7.577
				c3.051,1.806,7.564,0.792,9.266-2.43c1.723-3.261,0.828-7.338-2.43-9.266c-14.283-8.455-28.1-17.689-41.361-27.672
				c-0.934-0.703-1.865-1.409-2.793-2.12c-0.186-0.142-0.371-0.284-0.557-0.427c-0.713-0.548-0.52-0.41,0.074,0.06
				c-0.428-0.338-0.862-0.668-1.292-1.004c-1.905-1.485-3.798-2.986-5.679-4.5c-1.448-1.166-2.856-1.984-4.789-1.984
				c-1.661,0-3.645,0.738-4.789,1.984C1173.11,1193.688,1172.425,1198.43,1175.372,1200.802L1175.372,1200.802z"/>
		</g>
	</g>
	<g>
		<g>
			<path d="M1196.958,1170.991c4.272,2.363,8.425,4.936,12.433,7.724c1.002,0.697,1.994,1.407,2.978,2.129
				c0.437,0.321,0.872,0.645,1.306,0.971c0.217,0.163,0.433,0.327,0.649,0.491s0.431,0.329,0.646,0.495
				c-0.243-0.187-0.485-0.374-0.728-0.561c1.739,1.67,3.829,3.064,5.658,4.646c3.693,3.193,7.223,6.574,10.572,10.125
				c1.674,1.776,3.304,3.594,4.886,5.452c0.791,0.929,1.57,1.869,2.337,2.818c0.341,0.422,0.679,0.846,1.015,1.271
				c0.168,0.213,0.334,0.427,0.502,0.64c0.858,1.089-0.841-1.107-0.065-0.082c3.356,4.437,6.47,9.041,9.303,13.83
				c1.804,3.049,6.181,4.419,9.266,2.43c3.07-1.979,4.36-6.003,2.43-9.266c-10.635-17.976-25.007-33.466-41.928-45.673
				c-4.62-3.333-9.44-6.379-14.424-9.135c-3.1-1.714-7.53-0.856-9.266,2.43C1192.847,1164.907,1193.647,1169.16,1196.958,1170.991
				L1196.958,1170.991z"/>
		</g>
	</g>
</g>
<g id="Слой_22">
</g>
<g id="Слой_21">
</g>
<g id="Слой_4">
</g>
<g id="Слой_7">
</g>
<g id="Слой_6">
</g>
<g id="Слой_3">
</g>
<g id="Слой_19" style="display:none;">
</g>
<g id="Слой_16" style="display:none;opacity:0.56;">
</g>
<g id="Слой_15" style="display:none;">
</g>
<g id="Слой_14" style="display:none;">
</g>
<g id="Слой_13" style="display:none;">
</g>
<g id="Слой_12" style="display:none;">
</g>
</svg>